<svg width="80" height="80" viewBox="0 0 80 80" fill="none" xmlns="http://www.w3.org/2000/svg">
<g clip-path="url(#clip0_2242_568)">
<path d="M41.0142 1.58057C19.7631 1.58057 2.5332 19.4906 2.5332 41.5806C2.5332 60.3239 14.9497 76.0072 31.689 80.3472C31.5094 79.8072 31.394 79.1806 31.394 78.4039V71.5672C29.8323 71.5672 27.2156 71.5672 26.5582 71.5672C23.9254 71.5672 21.5845 70.3906 20.4493 68.2039C19.1891 65.7739 18.971 62.0572 15.8476 59.7839C14.9209 59.0272 15.6264 58.1639 16.6942 58.2806C18.6664 58.8606 20.3018 60.2672 21.8411 62.3539C23.3739 64.4439 24.0954 64.9172 26.959 64.9172C28.3475 64.9172 30.4255 64.8339 32.3816 64.5139C33.4335 61.7372 35.2517 59.1806 37.474 57.9739C24.6598 56.6039 18.5445 49.9772 18.5445 40.9806C18.5445 37.1072 20.1319 33.3606 22.8287 30.2039C21.9437 27.0706 20.8309 20.6806 23.1686 18.2472C28.9344 18.2472 32.4201 22.1339 33.2571 23.1839C36.1303 22.1606 39.2858 21.5806 42.6016 21.5806C45.9238 21.5806 49.092 22.1606 51.9717 23.1906C52.799 22.1472 56.288 18.2472 62.0665 18.2472C64.4139 20.6839 63.2883 27.1006 62.3936 30.2272C65.0745 33.3772 66.6522 37.1139 66.6522 40.9806C66.6522 49.9706 60.5465 56.5939 47.7516 57.9706C51.2726 59.8806 53.8412 65.2472 53.8412 69.2906V78.4039C53.8412 78.7506 53.7675 79.0006 53.729 79.2972C68.7238 73.8339 79.4952 59.0339 79.4952 41.5806C79.4952 19.4906 62.2654 1.58057 41.0142 1.58057Z" fill="black"/>
</g>
<defs>
<clipPath id="clip0_2242_568">
<rect width="80" height="80" fill="white"/>
</clipPath>
</defs>
</svg>
