<svg width="80" height="80" viewBox="0 0 80 80" fill="none" xmlns="http://www.w3.org/2000/svg">
<g clip-path="url(#clip0_2242_566)">
<path d="M70.175 0H9.375C4.131 0 -0.125 4.256 -0.125 9.5V70.3C-0.125 75.544 4.131 79.8 9.375 79.8H70.175C75.419 79.8 79.675 75.544 79.675 70.3V9.5C79.675 4.256 75.419 0 70.175 0ZM24.575 30.4V66.5H13.175V30.4H24.575ZM13.175 19.893C13.175 17.233 15.455 15.2 18.875 15.2C22.295 15.2 24.442 17.233 24.575 19.893C24.575 22.553 22.447 24.7 18.875 24.7C15.455 24.7 13.175 22.553 13.175 19.893ZM66.375 66.5H54.975C54.975 66.5 54.975 48.906 54.975 47.5C54.975 43.7 53.075 39.9 48.325 39.824H48.173C43.575 39.824 41.675 43.738 41.675 47.5C41.675 49.229 41.675 66.5 41.675 66.5H30.275V30.4H41.675V35.264C41.675 35.264 45.342 30.4 52.714 30.4C60.257 30.4 66.375 35.587 66.375 46.094V66.5Z" fill="black"/>
</g>
<defs>
<clipPath id="clip0_2242_566">
<rect width="80" height="80" fill="white"/>
</clipPath>
</defs>
</svg>
