<svg width="84" height="83" viewBox="0 0 84 83" fill="none" xmlns="http://www.w3.org/2000/svg">
<path d="M41.806 4.45654C63.3405 4.45654 80.7986 21.4085 80.7986 42.3189C80.7986 63.2292 63.3405 80.1812 41.806 80.1812C20.2715 80.1812 2.81348 63.2292 2.81348 42.3189C2.81348 21.4085 20.2715 4.45654 41.806 4.45654ZM55.2567 57.7529C55.9727 55.6171 59.3349 34.3213 59.7479 30.1238C59.8737 28.8536 59.459 28.0086 58.6508 27.63C57.6707 27.1739 56.2208 27.4011 54.5353 27.9914C52.2259 28.8003 22.7068 40.9696 21.0017 41.6752C19.3853 42.343 17.8557 43.0692 17.8557 44.1242C17.8557 44.866 18.3095 45.2824 19.5572 45.7144C20.8546 46.1636 24.1247 47.1257 26.0583 47.6437C27.9194 48.1428 30.0338 47.7091 31.2213 46.9931C32.4779 46.2342 46.9973 36.803 48.0377 35.9752C49.0781 35.1491 49.9094 36.2075 49.0586 37.0353C48.2079 37.8614 38.2435 47.253 36.9284 48.5541C35.3315 50.1323 36.464 51.769 37.5363 52.4247C38.7575 53.1733 47.5485 58.8974 48.8725 59.8164C50.1965 60.7354 51.5382 61.1519 52.7682 61.1519C53.9983 61.1502 54.6452 59.5772 55.2567 57.7529Z" fill="black"/>
</svg>
